# xmcd CD database file
#
# Track frame offsets:
#	150
#	20737
#	37065
#	56047
#	70212
#	84825
#	101527
#	116720
#	133607
#	147500
#	164305
#	184357
#	200852
#	216125
#
# Disc length: 3063 seconds
#
# Revision: 0
# Processed by: cddbd v1.4PL0 Copyright (c) Steve Scherf et al.
# Submitted via: CD2WAV32(EN) R3.19
#
DISCID=d90bf50e
DTITLE=HuseAkira - HeseAkiraBest
DYEAR=1900
DGENRE=
TTITLE0=Shikuramennnokaori
TTITLE1=Rakuyougayukini
TTITLE2=Katamuitamichishirube
TTITLE3=Meguriaitumuide
TTITLE4=Hitorishibai
TTITLE5=Kimihabarayoriutukushii
TTITLE6=Naze
TTITLE7=Koi
TTITLE8=Kirinomasyuuko
TTITLE9=Ainokuni
TTITLE10=Ainoowarini
TTITLE11=Aihahushicyou
TTITLE12=Tumikinoheya
TTITLE13=Sottooyasumi
EXTD=
EXTT0=
EXTT1=
EXTT2=
EXTT3=
EXTT4=
EXTT5=
EXTT6=
EXTT7=
EXTT8=
EXTT9=
EXTT10=
EXTT11=
EXTT12=
EXTT13=
PLAYORDER=
